/* XPM */
static char * floor_xpm[] = {
"64 64 67 1",
" 	c #202122",
".	c #1F2022",
"+	c #202022",
"@	c #202021",
"#	c #1F2021",
"$	c #1F2322",
"%	c #202723",
"&	c #202722",
"*	c #202622",
"=	c #1F2622",
"-	c #202522",
";	c #202623",
">	c #212723",
",	c #1A542D",
"'	c #1A532D",
")	c #318933",
"!	c #318833",
"~	c #257C33",
"{	c #257D33",
"]	c #1B542E",
"^	c #1B552E",
"/	c #247C33",
"(	c #308833",
"_	c #1A522D",
":	c #1A542E",
"<	c #1A532E",
"[	c #1B532E",
"}	c #1C6C31",
"|	c #1C6C32",
"1	c #267D33",
"2	c #1C6D32",
"3	c #000000",
"4	c #1D6D32",
"5	c #1C6D31",
"6	c #257C32",
"7	c #237A32",
"8	c #237932",
"9	c #237831",
"0	c #247A32",
"a	c #257B33",
"b	c #B00000",
"c	c #15903F",
"d	c #007A0B",
"e	c #D3000B",
"f	c #D2000B",
"g	c #CD0009",
"h	c #004D00",
"i	c #247C32",
"j	c #FF583C",
"k	c #7A0000",
"l	c #007000",
"m	c #318832",
"n	c #212623",
"o	c #202523",
"p	c #780000",
"q	c #1F2423",
"r	c #1F2422",
"s	c #247B33",
"t	c #770000",
"u	c #247B32",
"v	c #1C6B32",
"w	c #1B542D",
"x	c #1A552E",
"y	c #1A552D",
"z	c #1F2222",
"A	c #202322",
"B	c #202422",
"   .++. ++++++++.+@+++++++++++++.+++ +++++++++++.+  ...#+++    +",
" + .+....++.+.+++.#+..+.#..+...+++.+++++#+...+.##++..+....    + ",
" . ....++ +.+..+.+....#.++.##.++++.........#..###++ ..##+.   ++ ",
"+++#$$$$%%&&&*%%**=****-**--%&%&%%%%%%%;;*%>;*;**;;;****$$$$ . +",
"+.+$,,,')!!!!!!!~~~~~~~~~~~~!!!!!!!!!!!!!!!!~~{~~{~~~~~{]^]]$ . ",
"+..$,,,')!!!!!!!~~~~~~~~~~~~!!!!!!!!!!!!!!!!~~~~~~~~~~~~]]]]$+++",
"...$,,,'!!!!!!!!/~/~~~~~~~~~!!!!!!!(!!!!!!!!~~~~/~~/~~~~]]]]$..+",
"...$'''_)!!!!!!!/~~~~~~~~~~~)!!!!!!!!!!!!!!)/~~~~~~~~~/~':<[$...",
"+..*))))~~~~~~~~////~~~~~~~~~~~~~~~~/~~~~~//~~~~}|||~/~/{{{1-.++",
"..+&!!!!~~~~~~///~/~///~~~~/~~~~~~~~~~~~~~~~~~/~|22|~///~~~{-..+",
"+..&!!!!~~~~~~~~~~~~/~~~~~~~~~~~~~~~~~~~~~~~~~/~|222~//~~~~~-..+",
" .+>!!!!~~~~~{~~~~~~~~~~~~~~~~~~~~~~~~~~~~~~~~~~}2|}~~/~~~~~-+.+",
"+++>!!!!~~~~|22|~~~~/~~~~~333333333333~~~~~~~~~~~~~~~~~~~~~~-..+",
"+++*(!!!~~~/2422//~~///~~~333333333333~~~~~~~~~~~~~~~~//~~~~-.  ",
"+..*!!!!////2225////~~/~~~333333333333~~~~~~~~~~/~~~~///~~~6- .+",
"+.+;!!!!/~7/|225/890a7~~~~333333333333~~~~~~/~~~~~~~~~/~//~~-..+",
"+++*!!!!~~3333333333333333bbbbbbbbbbbb3333~~~~~~~~~~~~~~)!))* ++",
"+.@*!!!!/~3333333333333333bbbbbbbbbbbb3333~~~~~~~~~~~~~~!!!)*..+",
"+#@;!!!!/~3333333333333333bbbbbbbbbbbb3333~~~~~~~~~~~~~6)!!!*#++",
"++@;!!!!~~3333333333333333bbbbbbbbbbbb3333~~~~~~~~~~~~~~!!!!*..+",
"+.+*!!3333ccccccccdddd3333eeeebbbb333333333333~~~~~~~~~6!!!!*+.+",
"...;!!3333ccccccccdddd3333ffffbbbb333333333333~~~~~/~~~~!!!!;..+",
"+#.;!!3333ccccccccdddd3333gfffbbbb333333333333~~~~~~~~~~!!!!;..+",
"...*!!3333ccccccccdddd3333gfffbbbb333333333333~~~~~~~~~~!!!!*..+",
"+++;~~~~~/3333dddd3333eeeebbbbbbbb33333333hhhh333322~~~~!!!!;..+",
"...;~~~~//3333dddd3333eeeebbbbbbbb33333333hhhh333322~//i!!!!;.++",
"#..*~~/~~~3333dddd3333eeeebbbbbbbb33333333hhhh333342~i/i!!!!;...",
"...*~~~~~~3333dddd3333eeeebbbbbbbb33333333hhhh333322~/i/!!!!;..+",
"...*~~~~~~~~~~3333jjjjeeeebbbbbbbbkkkk3333llllhhhh3333~i!!!!;+.+",
"+.+-~/~~//~~~~3333jjjjeeeebbbbbbbbkkkk3333llllhhhh3333/i!!!!;+.+",
"+.+*~~~~/~~/~~3333jjjjeeeebbbbbbbbkkkk3333llllhhhh3333~i!!!!;+++",
"..+*~~/~~~~~~~3333jjjjeeeebbbbbbbbkkkk3333llllhhhh3333/im!!!n+++",
"+.+*~i/~/~3333eeeeeeeebbbbbbbbbbbbbbbbkkkk3333hhhh3333/666~~;+++",
"..+*~i~///3333eeeeeeeebbbbbbbbbbbbbbbbkkkk3333hhhh3333/i~~~6*+.+",
"+.+*6~~~//3333eeeeeeeebbbbbbbbbbbbbbbbkkkk3333hhhh3333i6~~~~-+.+",
"+++-~~/~~~3333eeeeeeeebbbbbbbbbbbbbbbbkkkk3333hhhh3333/~~~~~-+++",
"+.+n!!!!/~3333eeeebbbbbbbbbbbbbbbbbbbbkkkk3333hhhhllll3333~~-+++",
"+++*!!!!/~3333eeeebbbbbbbbbbbbbbbbbbbbkkkk3333hhhhllll3333~~o+++",
"+++%!!!!/~3333eeeebbbbbbbbbbbbbbbbbbbbkkkk3333hhhhllll3333~~o+++",
"..+%!!!!~~3333eeeebbbbbbbbbbbbbbbbbbbbkkkk3333hhhhllll3333~{o...",
"+++;!!!!/~3333ffffbbbbbbbbbbbbbbbbbbbbpppp333333333333/i||||q+++",
"+.+%!!!!//3333ffffbbbbbbbbbbbbbbbbbbbbpppp333333333333/i}|}|r..+",
"+.+&!!!!//3333ffffbbbbbbbbbbbbbbbbbbbbpppp333333333333ii}}}}r.++",
"+.+&!!!!~~3333ffffbbbbbbbbbbbbbbbbbbbbpppp333333333333ii}}}|r...",
"+..&!!!!/~3333bbbbbbbbbbbbbbbbbbbbbbbbkkkk3333~//~~~~~/i}}}|r+..",
"+.+&!!!!//3333bbbbbbbbbbbbbbbbbbbbbbbbkkkk3333/~~~~////i|}}}r..+",
"+.+%!!!!//3333bbbbbbbbbbbbbbbbbbbbbbbbkkkk3333iii~//iiii}}}}r.+.",
"+.+%!!!!//3333bbbbbbbbbbbbbbbbbbbbbbbbkkkk3333/////s//ii}}||r..+",
"+++%!!!!~~~~~~3333bbbbbbbbbbbbkkkktkkk3333/~~~~/!!!!s~/i}}}|r+.+",
"+++%!!!!/~//~~3333bbbbbbbbbbbbkttttkkk3333~~i~~i!!!!/~ii}}}}r..+",
" ++;!!!!///~//3333bbbbbbbbbbbbkttttkkk3333iii~6i(((!u6ii}}|}r+.+",
" ++;!!!!/~~~/~3333bbbbbbbbbbbbkttkkkkk3333~/~~~um(!!s~ii||||r.++",
"+++*~6~~~~//~~~~|233333333333333333333~~~~~~~~~~i~~~~//6||||q+++",
"+++*~~~~~~//~~//|433333333333333333333~~~~~~/~~~/~~~~//i||||r+++",
"+++-~~i~~~i///ii||33333333333333333333~~~//~~~////~~~~ii||||r+.+",
"++.*{{{{~~/~~/i/||33333333333333333333~~//////ii/~~/~~/i|vv|r..+",
"++.$''''{~~/~~//~~///~//~~~~~~/~!!!!!!!!!!!!!!!!/~~~~~/~'[[[$.++",
"+..$,,,'{/~/~~///////~/~~~~~~~~~!!!!!!!!!!!!!!!!/~~~~~~~]]]w$..+",
"+.+$:,,'{////~//~~/~/~~~~~~~~~~~!!!!!!!!!!!!!!!!/~~~~~/~]]]]$..+",
"...$x:y,{{{{{{{{{{{{{{{{{{{{{{{{)))))))))))))))){{{{{{{{xxxy$..+",
"..+#zzzz$$AA$$$$A$$$$$$$AA$$AAA$B---BBBB-B-B---B$$AAAA$$zzzz....",
"+++.....+.+.+...+.#+....+..+..+++++.++....+.+.++#....+...++ +++ ",
"+++++..+++.++.....+++...++.++++++++.++++++..+++.+.+++++++ +  +.+",
"+++++....+++++..+..+...+++....++..+.+++++............+...    +++"};
