/* XPM */
static char * collectible_fruit_apple_xpm[] = {
"64 64 60 1",
" 	c #202122",
".	c #1F2022",
"+	c #202022",
"@	c #202021",
"#	c #1F2021",
"$	c #1F2322",
"%	c #202723",
"&	c #202722",
"*	c #202622",
"=	c #1F2622",
"-	c #202522",
";	c #202623",
">	c #212723",
",	c #1A542D",
"'	c #1A532D",
")	c #318933",
"!	c #318833",
"~	c #257C33",
"{	c #257D33",
"]	c #1B542E",
"^	c #1B552E",
"/	c #000000",
"(	c #308833",
"_	c #247C33",
":	c #1A522D",
"<	c #1A542E",
"[	c #1A532E",
"}	c #1B532E",
"|	c #1C6C31",
"1	c #1C6C32",
"2	c #267D33",
"3	c #1C6D32",
"4	c #03991F",
"5	c #0A7030",
"6	c #257C32",
"7	c #14462D",
"8	c #247C32",
"9	c #1D6D32",
"0	c #FA5F00",
"a	c #AF101B",
"b	c #1C6D31",
"c	c #DD3013",
"d	c #318832",
"e	c #212623",
"f	c #010501",
"g	c #000501",
"h	c #202523",
"i	c #000401",
"j	c #1F2423",
"k	c #1F2422",
"l	c #247B33",
"m	c #247B32",
"n	c #1C6B32",
"o	c #010601",
"p	c #1B542D",
"q	c #1A552E",
"r	c #1A552D",
"s	c #1F2222",
"t	c #202322",
"u	c #202422",
"   .++. ++++++++.+@+++++++++++++.+++ +++++++++++.+  ...#+++    +",
" + .+....++.+.+++.#+..+.#..+...+++.+++++#+...+.##++..+....    + ",
" . ....++ +.+..+.+....#.++.##.++++.........#..###++ ..##+.   ++ ",
"+++#$$$$%%&&&*%%**=****-**--%&%&%%%%%%%;;*%>;*;**;;;****$$$$ . +",
"+.+$,,,')!!!!!!!~~~~~~~~~~~~!!!!!!!!!!!!!!!!~~{~~{~~~~~{]^]]$ . ",
"+..$,,,')!!!!!!!~~~~~~~~~~~~!!!!!!!!!!!!!!!!~~~~~~~~~~~~]]]]$+++",
"...$,,,'!!!!!!!!////////~~~~!!!!!!!(!!!!!!!!~~~~_~~_~~~~]]]]$..+",
"...$''':)!!!!!!!////////~~~~)!!!!!!!!!!!!!!)_~~~~~~~~~_~'<[}$...",
"+..*))))~~~~~~~~////////~~~~~~~~~~~~_~~~~~__~~~~|111~_~_{{{2-.++",
"..+&!!!!~~~~~~__////////~~~_~~~~~~~~~~~~~~~~~~_~1331~___~~~{-..+",
"+..&!!!!~~~~////44444444////~~~~~~~~~~~~~~~~~~_~1333~__~~~~~-..+",
" .+>!!!!~~~~////44444444////~~~~~~~~~~~~~~~~~~~~|31|~~_~~~~~-+.+",
"+++>!!!!~~~~////44444444////~~~~~~~~~~~~~~~~~~~~~~~~~~~~~~~~-..+",
"+++*(!!!~~~_////44444444////~~~~~~~~~~~~~~~~~~~~~~~~~~__~~~~-.  ",
"+..*!!!!////4444555555555555////~~~~////////////_~~~~___~~~6- .+",
"+.+;!!!!////4444555555555555////~~~~////////////~~~~~~_~__~~-..+",
"+++*!!!!////4444555555555555////~~~~////////////~~~~~~~~)!))* ++",
"+.@*!!!!////4444555555555555////~~~~////////////~~~~~~~~!!!)*..+",
"+#@;!!!!_~~~////////////////////////555555557777////~~~6)!!!*#++",
"++@;!!!!~~~~////////////////////////555555557777////~~~~!!!!*..+",
"+.+*!!!!~~~~////////////////////////555555557777////~~~6!!!!*+.+",
"...;!!!!__~~////////////////////////555555557777////~~~~!!!!;..+",
"+#.;!!!!~~~~~~~_8____~~~////////////////////////~~~~~~~~!!!!;..+",
"...*!!!!~_~~~~~_~_8_____////////////////////////~~~~~~~~!!!!*..+",
"+++;~~~~~__~~~8_1131___~////////////////////////|333~~~~!!!!;..+",
"...;~~~~________3333____////////////////////////|333~__8!!!!;.++",
"#..*~~_~~~~_~~_83933////0000aaaaaaaa0000////_~88b393~8_8!!!!;...",
"...*~~~~~~~_~~_~3333////0000aaaaaaaa0000////_~__1333~_8_!!!!;..+",
"...*~~~~~~~~~~~~~~~~////0000aaaaaaaa0000////~~~__~~~~~~8!!!!;+.+",
"+.+-~_~~__~~~~~~_~__////0000aaaaaaaa0000////~~_88_~~~~_8!!!!;+.+",
"+.+*~~~~_~~_~~~~////0000cccc00000000cccc0000////8~~~~~~8!!!!;+++",
"..+*~~_~~~~~~~~~////0000cccc00000000cccc0000////8~~~~~_8d!!!e+++",
"+.+*~8_~_~~~~~_~////0000cccc00000000cccc0000////6~~__6_666~~;+++",
"..+*~8~____~~~~_////0000cccc00000000cccc0000////8~~~6__8~~~6*+.+",
"+.+*6~~~__~~fffg0000cccccccc00000000cccccccc0000////6~86~~~~-+.+",
"+++-~~_~~~~~ffff0000cccccccc00000000cccccccc0000////~~_~~~~~-+++",
"+.+e!!!!_~~~ffff0000cccccccc00000000cccccccc0000////~~~~~~~~-+++",
"+++*!!!!_~~~ffff0000cccccccc00000000cccccccc0000////~~~_~~~~h+++",
"+++%!!!!_~~~ffgg00000000ccccccccccccaaaacccc0000////~~866~~~h+++",
"..+%!!!!~~~~f//g00000000ccccccccccccaaaacccc0000////~_8666~{h...",
"+++;!!!!_~~_i//i00000000ccccccccccccaaaacccc0000////~~_81111j+++",
"+.+%!!!!____///i00000000ccccccccccccaaaacccc0000////___8|1|1k..+",
"+.+&!!!!____////aaaaccccaaaaaaaaccccccccccccaaaa////6_88||||k.++",
"+.+&!!!!~~__////aaaaccccaaaaaaaaccccccccccccaaaa////__88|||1k...",
"+..&!!!!_~~~////aaaaccccaaaaaaaaccccccccccccaaaa////~~_8|||1k+..",
"+.+&!!!!__~_////aaaaccccaaaaaaaaccccccccccccaaaa////___81|||k..+",
"+.+%!!!!__888_8_////aaaaaaaaaaaaccccccccaaaa////8~__8888||||k.+.",
"+.+%!!!!___~~~88////aaaaaaaaaaaaccccccccaaaa////___l__88||11k..+",
"+++%!!!!~~~~~~~_////aaaaaaaaaaaaccccccccaaaa////!!!!l~_8|||1k+.+",
"+++%!!!!_~__~~__////aaaaaaaaaaaaccccccccaaaa////!!!!_~88||||k..+",
" ++;!!!!___~__8_1133iiiiaaaaaaaaaaaaaaaa////8~68(((!m688||1|k+.+",
" ++;!!!!_~~~_~__1333iiiiaaaaaaaaaaaaaaaa////~~~md(!!l~881111k.++",
"+++*~6~~~~__~~~~1333iiiiaaaaaaaaaaaaaaaa////~~~~8~~~~__61111j+++",
"+++*~~~~~~__~~__1933iiiiaaaaaaaaaaaaaaaa////_~~~_~~~~__81111k+++",
"+++-~~8~~~8___8811331111////gggggffgffff~__~~~____~~~~881111k+.+",
"++.*{{{{~~_~~_8_11111111////////////////______88_~~_~~_81nn1k..+",
"++.$''''{~~_~~__~~___~__////////////////!!!!!!!!_~~~~~_~'}}}$.++",
"+..$,,,'{_~_~~_______~_~ffffffffoooooooo!!!!!!!!_~~~~~~~]]]p$..+",
"+.+$<,,'{____~__~~_~_~~~~~~~~~~~!!!!!!!!!!!!!!!!_~~~~~_~]]]]$..+",
"...$q<r,{{{{{{{{{{{{{{{{{{{{{{{{)))))))))))))))){{{{{{{{qqqr$..+",
"..+#ssss$$tt$$$$t$$$$$$$tt$$ttt$u---uuuu-u-u---u$$tttt$$ssss....",
"+++.....+.+.+...+.#+....+..+..+++++.++....+.+.++#....+...++ +++ ",
"+++++..+++.++.....+++...++.++++++++.++++++..+++.+.+++++++ +  +.+",
"+++++....+++++..+..+...+++....++..+.+++++............+...    +++"};
