/* XPM */
static char * collectible_xpm[] = {
"64 64 53 1",
" 	c #202122",
".	c #1F2022",
"+	c #202022",
"@	c #202021",
"#	c #1F2021",
"$	c #1F2322",
"%	c #202723",
"&	c #202722",
"*	c #202622",
"=	c #1F2622",
"-	c #202522",
";	c #202623",
">	c #212723",
",	c #1A542D",
"'	c #1A532D",
")	c #318933",
"!	c #318833",
"~	c #257C33",
"{	c #257D33",
"]	c #1B542E",
"^	c #1B552E",
"/	c #247C33",
"(	c #308833",
"_	c #1A522D",
":	c #1A542E",
"<	c #1A532E",
"[	c #1B532E",
"}	c #1C6C31",
"|	c #1C6C32",
"1	c #267D33",
"2	c #1C6D32",
"3	c #1B1B1B",
"4	c #1D6D32",
"5	c #1C6D31",
"6	c #257C32",
"7	c #FFF21B",
"8	c #F2741B",
"9	c #FBC41B",
"0	c #247C32",
"a	c #318832",
"b	c #212623",
"c	c #202523",
"d	c #1F2423",
"e	c #1F2422",
"f	c #247B33",
"g	c #247B32",
"h	c #1C6B32",
"i	c #1B542D",
"j	c #1A552E",
"k	c #1A552D",
"l	c #1F2222",
"m	c #202322",
"n	c #202422",
"   .++. ++++++++.+@+++++++++++++.+++ +++++++++++.+  ...#+++    +",
" + .+....++.+.+++.#+..+.#..+...+++.+++++#+...+.##++..+....    + ",
" . ....++ +.+..+.+....#.++.##.++++.........#..###++ ..##+.   ++ ",
"+++#$$$$%%&&&*%%**=****-**--%&%&%%%%%%%;;*%>;*;**;;;****$$$$ . +",
"+.+$,,,')!!!!!!!~~~~~~~~~~~~!!!!!!!!!!!!!!!!~~{~~{~~~~~{]^]]$ . ",
"+..$,,,')!!!!!!!~~~~~~~~~~~~!!!!!!!!!!!!!!!!~~~~~~~~~~~~]]]]$+++",
"...$,,,'!!!!!!!!/~/~~~~~~~~~!!!!!!!(!!!!!!!!~~~~/~~/~~~~]]]]$..+",
"...$'''_)!!!!!!!/~~~~~~~~~~~)!!!!!!!!!!!!!!)/~~~~~~~~~/~':<[$...",
"+..*))))~~~~~~~~////~~~~~~~~~~~~~~~~/~~~~~//~~~~}|||~/~/{{{1-.++",
"..+&!!!!~~~~~~///~/~///~~~~/~~~~~~~~~~~~~~~~~~/~|22|~///~~~{-..+",
"+..&!!!!~~~~~~~~~~~~/~~~~~~~~~~~~~~~~~~~~~~~~~/~|222~//~~~~~-..+",
" .+>!!!!~~~~~{~~~~~~~~3333333333333333333~~~~~~~}2|}~~/~~~~~-+.+",
"+++>!!!!~~~~|22|~~~~/~3333333333333333333~~~~~~~~~~~~~~~~~~~-..+",
"+++*(!!!~~~/2422//~~//3333333333333333333~~~~~~~~~~~~~//~~~~-.  ",
"+..*!!!!////2225////~~3333333333333333333~~~~~~~/~~~~///~~~6- .+",
"+.+;!!!!/~//2225//3333777777777777777777733333~~~~~~~~/~//~~-..+",
"+++*!!!!~~~~~{~~~~3333777777777777777777733333~~~~~~~~~~)!))* ++",
"+.@*!!!!/~~~~~//~~3333777777777777777777733333~~~~~~~~~~!!!)*..+",
"+#@;!!!!/~~~~~///~3333777777777777777777733333~~~~~~~~~6)!!!*#++",
"++@;!!!!~~~~//~//~3333777777777777777777733333~~~~~~~~~~!!!!*..+",
"+.+*!!!!~~~~~~~~/~3333777777777777777777733333~~~~~~~~~6!!!!*+.+",
"...;!!!!//~~/33333888899999999999999977777777733333/~~~~!!!!;..+",
"+#.;!!!!~~~~~33333888899999777779999999997777733333~~~~~!!!!;..+",
"...*!!!!~/~~~33333888899999777779999999997777733333~~~~~!!!!*..+",
"+++;~~~~~//~~333338888999997777799999999977777333332~~~~!!!!;..+",
"...;~~~~/////333338888999997777799999999977777333332~//0!!!!;.++",
"#..*~~/~~~~/~333338888999997777799999999977777333332~0/0!!!!;...",
"...*~~~~~~~/~333338888999997777799999999977777333332~/0/!!!!;..+",
"...*~~~~~~~~~33333888899999888887777799997777733333~~~~0!!!!;+.+",
"+.+-~/~~//~~~33333888899999888887777799997777733333~~~/0!!!!;+.+",
"+.+*~~~~/~~/~33333888899999888887777799997777733333~~~~0!!!!;+++",
"..+*~~/~~~~~~33333888899999888887777799997777733333~~~/0a!!!b+++",
"+.+*~0/~/~~~~33333888899999888887777799997777733333//6/666~~;+++",
"..+*~0~////~~33333888899999888887777799997777733333~6//0~~~6*+.+",
"+.+*6~~~//~~~33333888899999888887777799997777733333~6~06~~~~-+.+",
"+++-~~/~~~~~~33333888899999888887777799997777733333~~~/~~~~~-+++",
"+.+b!!!!/~~~~33333888899999999998888899997777733333~~~~~~~~~-+++",
"+++*!!!!/~~~~33333888899999999998888899997777733333~~~~/~~~~c+++",
"+++%!!!!/~~~~33333888899999999998888899997777733333~~~066~~~c+++",
"..+%!!!!~~~~~33333888899999999998888899997777733333~~/0666~{c...",
"+++;!!!!/~~/233333888899999999998888899997777733333~~~/0||||d+++",
"+.+%!!!!////233333888899999999998888899997777733333////0}|}|e..+",
"+.+&!!!!////233333888888888999999999999997777733333/6/00}}}}e.++",
"+.+&!!!!~~//|25}//333388888888888888888883333300/~~///00}}}|e...",
"+..&!!!!/~~~~~~//~3333888888888888888888833333~//~~~~~/0}}}|e+..",
"+.+&!!!!//~///////3333888888888888888888833333/~~~~////0|}}}e..+",
"+.+%!!!!//000/0/0/3333888888888888888888833333000~//0000}}}}e.+.",
"+.+%!!!!///~~~000~3333888888888888888888833333/////f//00}}||e..+",
"+++%!!!!~~~~~~~/|23333888888888888888888833333~/!!!!f~/0}}}|e+.+",
"+++%!!!!/~//~~//||2||23333333333333333333~~~0~~0!!!!/~00}}}}e..+",
" ++;!!!!///~//0/||222|33333333333333333336000~60(((!g600}}|}e+.+",
" ++;!!!!/~~~/~//|2222|3333333333333333333~~/~~~ga(!!f~00||||e.++",
"+++*~6~~~~//~~~~|2222|3333333333333333333~~~~~~~0~~~~//6||||d+++",
"+++*~~~~~~//~~//|422||||~~//~~~//~~~~~~~~~~~/~~~/~~~~//0||||e+++",
"+++-~~0~~~0///00||22||||~///0////~~/~~~~~//~~~////~~~~00||||e+.+",
"++.*{{{{~~/~~/0/||||||||~~/////~g~g~/~~~//////00/~~/~~/0|hh|e..+",
"++.$''''{~~/~~//~~///~//~~~~~~/~!!!!!!!!!!!!!!!!/~~~~~/~'[[[$.++",
"+..$,,,'{/~/~~///////~/~~~~~~~~~!!!!!!!!!!!!!!!!/~~~~~~~]]]i$..+",
"+.+$:,,'{////~//~~/~/~~~~~~~~~~~!!!!!!!!!!!!!!!!/~~~~~/~]]]]$..+",
"...$j:k,{{{{{{{{{{{{{{{{{{{{{{{{)))))))))))))))){{{{{{{{jjjk$..+",
"..+#llll$$mm$$$$m$$$$$$$mm$$mmm$n---nnnn-n-n---n$$mmmm$$llll....",
"+++.....+.+.+...+.#+....+..+..+++++.++....+.+.++#....+...++ +++ ",
"+++++..+++.++.....+++...++.++++++++.++++++..+++.+.+++++++ +  +.+",
"+++++....+++++..+..+...+++....++..+.+++++............+...    +++"};
