/* XPM */
static char * mlx_test_xpm[] = {
"64 64 5 1",
" 	c #181425",
".	c #92A1B9",
"+	c #657392",
"@	c #424C6E",
"#	c #2A2F4E",
"                                                                ",
"                                                                ",
"                                                                ",
"                                                                ",
"                                                                ",
"                                                                ",
"                                                                ",
"                                                                ",
"                                                ........++++    ",
"                                                ........++++    ",
"                                                ........++++    ",
"                                                ........++++    ",
"                                                ....++++@@@@    ",
"                                                ....++++@@@@    ",
"                                                ....++++@@@@    ",
"                                                ....++++@@@@    ",
"                                                ++++++++@@@@    ",
"                                                ++++++++@@@@    ",
"                                                ++++++++@@@@    ",
"                                                ++++++++@@@@    ",
"                                ++++++++@@@@####++++++++@@@@    ",
"                                ++++++++@@@@####++++++++@@@@    ",
"                                ++++++++@@@@####++++++++@@@@    ",
"                                ++++++++@@@@####++++++++@@@@    ",
"                                ++++@@@@########++++++++@@@@    ",
"                                ++++@@@@########++++++++@@@@    ",
"                                ++++@@@@########++++++++@@@@    ",
"                                ++++@@@@########++++++++@@@@    ",
"                ++++++++@@@@####@@@@@@@@########++++++++@@@@    ",
"                ++++++++@@@@####@@@@@@@@########++++++++@@@@    ",
"                ++++++++@@@@####@@@@@@@@########++++++++@@@@    ",
"                ++++++++@@@@####@@@@@@@@########++++++++@@@@    ",
"                ++++@@@@########@@@@@@@@########++++++++@@@@    ",
"                ++++@@@@########@@@@@@@@########++++++++@@@@    ",
"                ++++@@@@########@@@@@@@@########++++++++@@@@    ",
"                ++++@@@@########@@@@@@@@########++++++++@@@@    ",
"    @@@@####    @@@@@@@@########@@@@@@@@########++++++++@@@@    ",
"    @@@@####    @@@@@@@@########@@@@@@@@########++++++++@@@@    ",
"    @@@@####    @@@@@@@@########@@@@@@@@########++++++++@@@@    ",
"    @@@@####    @@@@@@@@########@@@@@@@@########++++++++@@@@    ",
"    @@@@        @@@@@@@@########@@@@@@@@########++++++++@@@@    ",
"    @@@@        @@@@@@@@########@@@@@@@@########++++++++@@@@    ",
"    @@@@        @@@@@@@@########@@@@@@@@########++++++++@@@@    ",
"    @@@@        @@@@@@@@########@@@@@@@@########++++++++@@@@    ",
"    ####        @@@@@@@@########@@@@@@@@########++++++++@@@@    ",
"    ####        @@@@@@@@########@@@@@@@@########++++++++@@@@    ",
"    ####        @@@@@@@@########@@@@@@@@########++++++++@@@@    ",
"    ####        @@@@@@@@########@@@@@@@@########++++++++@@@@    ",
"    ####        @@@@@@@@########@@@@@@@@########++++++++@@@@    ",
"    ####        @@@@@@@@########@@@@@@@@########++++++++@@@@    ",
"    ####        @@@@@@@@########@@@@@@@@########++++++++@@@@    ",
"    ####        @@@@@@@@########@@@@@@@@########++++++++@@@@    ",
"    ####        @@@@@@@@########@@@@@@@@########....++++@@@@    ",
"    ####        @@@@@@@@########@@@@@@@@########....++++@@@@    ",
"    ####        @@@@@@@@########@@@@@@@@########....++++@@@@    ",
"    ####        @@@@@@@@########@@@@@@@@########....++++@@@@    ",
"    ####        @@@@@@@@########++++@@@@########........++++    ",
"    ####        @@@@@@@@########++++@@@@########........++++    ",
"    ####        @@@@@@@@########++++@@@@########........++++    ",
"    ####        @@@@@@@@########++++@@@@########........++++    ",
"                                                                ",
"                                                                ",
"                                                                ",
"                                                                "};
