/* XPM */
static char * floor_xpm[] = {
"64 64 50 1",
" 	c #202122",
".	c #1F2022",
"+	c #202022",
"@	c #202021",
"#	c #1F2021",
"$	c #1F2322",
"%	c #202723",
"&	c #202722",
"*	c #202622",
"=	c #1F2622",
"-	c #202522",
";	c #202623",
">	c #212723",
",	c #1A542D",
"'	c #1A532D",
")	c #318933",
"!	c #318833",
"~	c #257C33",
"{	c #257D33",
"]	c #1B542E",
"^	c #1B552E",
"/	c #247C33",
"(	c #308833",
"_	c #1A522D",
":	c #1A542E",
"<	c #1A532E",
"[	c #1B532E",
"}	c #1C6C31",
"|	c #1C6C32",
"1	c #267D33",
"2	c #1C6D32",
"3	c #1D6D32",
"4	c #1C6D31",
"5	c #257C32",
"6	c #247C32",
"7	c #318832",
"8	c #212623",
"9	c #318932",
"0	c #202523",
"a	c #1F2423",
"b	c #1F2422",
"c	c #247B33",
"d	c #247B32",
"e	c #1C6B32",
"f	c #1B542D",
"g	c #1A552E",
"h	c #1A552D",
"i	c #1F2222",
"j	c #202322",
"k	c #202422",
"   .++. ++++++++.+@+++++++++++++.+++ +++++++++++.+  ...#+++    +",
" + .+....++.+.+++.#+..+.#..+...+++.+++++#+...+.##++..+....    + ",
" . ....++ +.+..+.+....#.++.##.++++.........#..###++ ..##+.   ++ ",
"+++#$$$$%%&&&*%%**=****-**--%&%&%%%%%%%;;*%>;*;**;;;****$$$$ . +",
"+.+$,,,')!!!!!!!~~~~~~~~~~~~!!!!!!!!!!!!!!!!~~{~~{~~~~~{]^]]$ . ",
"+..$,,,')!!!!!!!~~~~~~~~~~~~!!!!!!!!!!!!!!!!~~~~~~~~~~~~]]]]$+++",
"...$,,,'!!!!!!!!/~/~~~~~~~~~!!!!!!!(!!!!!!!!~~~~/~~/~~~~]]]]$..+",
"...$'''_)!!!!!!!/~~~~~~~~~~~)!!!!!!!!!!!!!!)/~~~~~~~~~/~':<[$...",
"+..*))))~~~~~~~~////~~~~~~~~~~~~~~~~/~~~~~//~~~~}|||~/~/{{{1-.++",
"..+&!!!!~~~~~~///~/~///~~~~/~~~~~~~~~~~~~~~~~~/~|22|~///~~~{-..+",
"+..&!!!!~~~~~~~~~~~~/~~~~~~~~~~~~~~~~~~~~~~~~~/~|222~//~~~~~-..+",
" .+>!!!!~~~~~{~~~~~~~~~~~~~~~~~~~~~~~~~~~~~~~~~~}2|}~~/~~~~~-+.+",
"+++>!!!!~~~~|22|~~~~/~~~~~~~~~~~~~~~~~~~~~~~~~~~~~~~~~~~~~~~-..+",
"+++*(!!!~~~/2322//~~///~~~~~~~~~~~~~~~~~~~~~~~~~~~~~~~//~~~~-.  ",
"+..*!!!!////2224////~~/~~~~/~~/~~~~~~~~~~~~~~~~~/~~~~///~~~5- .+",
"+.+;!!!!/~//2224///~~/~~~~~~~~~~~~~~~~~~~~~~/~~~~~~~~~/~//~~-..+",
"+++*!!!!~~~~~{~~~~~~~~~~~~~~~~~~~~~~~~~~~~~~~~~~~~~~~~~~)!))* ++",
"+.@*!!!!/~~~~~//~~~~~~~~~~~~~~~~~~~~~~~~~~~~~~~~~~~~~~~~!!!)*..+",
"+#@;!!!!/~~~~~///~~~~~/~~~~~~~~~~~~~~~~~~~~~~~~~~~~~~~~5)!!!*#++",
"++@;!!!!~~~~//~//~~/~~~~~~~~~~~~~~~~~/~~~~~~~~~~~~~~~~~~!!!!*..+",
"+.+*!!!!~~~~~~~~/~~~~~~~~~~~~~~~~~~~!!!!~~~~~~~~~~~~~~~5!!!!*+.+",
"...;!!!!//~~/~//////~~//~~~~~~/~/~~~!!!!/~/~~~~~~~~/~~~~!!!!;..+",
"+#.;!!!!~~~~~~~/6////~~~~~~~~~~~~~~/!!!!/~~/~~~~~~~~~~~~!!!!;..+",
"...*!!!!~/~~~~~/~/6/////~~~/~~/~~~~/!!!!/~~/~~~~~~~~~~~~!!!!*..+",
"+++;~~~~~//~~~6/||2|///~~~//~~/~~~/~~~~~~~~/~~/6}222~~~~!!!!;..+",
"...;~~~~////////2222////////~/~/~~///~/~/~///~//}222~//6!!!!;.++",
"#..*~~/~~~~/~~/62322////~~~~~~/~~~/~~~~~~~~~/~664232~6/6!!!!;...",
"...*~~~~~~~/~~/~2222~~/~~~~~~~~~/~////~~~~/~/~//|222~/6/!!!!;..+",
"...*~~~~~~~~~~~~~~~~~~~~~~~~~~~~~~~~~~~~~~~~~~~//~~~~~~6!!!!;+.+",
"+.+-~/~~//~~~~~~/~//~~~~~///~~~~/~~~~~~~~~~/~~/66/~~~~/6!!!!;+.+",
"+.+*~~~~/~~/~~~~~~//~~~~~~~~~~~~~~~~~/~~~~/~/~~56~~~~~~6!!!!;+++",
"..+*~~/~~~~~~~~~~~/~~~~~~~~~~~~//~~~~~~~~~/~/~~56~~~~~/67!!!8+++",
"+.+*~6/~/~~~~~/~/~/~/~//~~~/7!!!/~~~~//~~////~~~5~~//5/555~~;+++",
"..+*~6~////~~~~/6~/~/~~~~//6!!!!/~6~~~~~~6////666~~~5//6~~~5*+.+",
"+.+*5~~~//~~~~566~6//~//~~/6!!(!/~~/~6~~666/66666/~~5~65~~~~-+.+",
"+++-~~/~~~~~~~~~~~~~~~~~~~~59!!!~~~~~~~~~~//~~~5~~~~~~/~~~~~-+++",
"+.+8!!!!/~~~~~~~~~~~~~~~~~~~~~~~~~~~~~~~~~~/~~~565~~~~~~~~~~-+++",
"+++*!!!!/~~~~~~~~~/~~~~~~~~/~~~~/~~/~~~~~~~~~~~~~~~~~~~/~~~~0+++",
"+++%!!!!/~~~~~6//~//////~~~~~~~~~~~~//~~~~~~~~/6~6~~~~655~~~0+++",
"..+%!!!!~~~~~6/////~~~~~~~~~~~~~~~~~~//~~~~~~~~6/6~~~/6555~{0...",
"+++;!!!!/~~/2222////////~~/~~~/~/~//~/~~~~~//~~///~~~~/6||||a+++",
"+.+%!!!!////2222///~/~/~~~~/~~/////////~///~~~~///~////6}|}|b..+",
"+.+&!!!!////222}6///////~~~~~~/~/~6~~/~/~///~/~66~~/5/66}}}}b.++",
"+.+&!!!!~~//|24}//6//~//~~~~~~/////~~~~~///~~~66/~~///66}}}|b...",
"+..&!!!!/~~~~~~//~/~~~~~~~~~~~~//~/~23||~~~~~~~//~~~~~/6}}}|b+..",
"+.+&!!!!//~////////~////~~~~~~/~/~~~333|~////~/~~~~////6|}}}b..+",
"+.+%!!!!//666/6/6///////~~///~~/6///3322/////~666~//6666}}}}b.+.",
"+.+%!!!!///~~~666~//////~~~~~~~/~///2222~//~~~/////c//66}}||b..+",
"+++%!!!!~~~~~~~/|22|||||~~~~~~~~/~~~~~/~~~/~~~~/!!!!c~/6}}}|b+.+",
"+++%!!!!/~//~~//||2||2||~~//~~~~/~~~~~/~/~~~6~~6!!!!/~66}}}}b..+",
" ++;!!!!///~//6/||222|||~////~///~~5~~~~~5666~56(((!d566}}|}b+.+",
" ++;!!!!/~~~/~//|2222|2|~///~~~~~~~~~~~~6~~/~~~d7(!!c~66||||b.++",
"+++*~5~~~~//~~~~|2222|||~~~/~~~~~~~~~~~~~~~~~~~~6~~~~//5||||a+++",
"+++*~~~~~~//~~//|322||||~~//~~~//~~~~~~~~~~~/~~~/~~~~//6||||b+++",
"+++-~~6~~~6///66||22||||~///6////~~/~~~~~//~~~////~~~~66||||b+.+",
"++.*{{{{~~/~~/6/||||||||~~/////~d~d~/~~~//////66/~~/~~/6|ee|b..+",
"++.$''''{~~/~~//~~///~//~~~~~~/~!!!!!!!!!!!!!!!!/~~~~~/~'[[[$.++",
"+..$,,,'{/~/~~///////~/~~~~~~~~~!!!!!!!!!!!!!!!!/~~~~~~~]]]f$..+",
"+.+$:,,'{////~//~~/~/~~~~~~~~~~~!!!!!!!!!!!!!!!!/~~~~~/~]]]]$..+",
"...$g:h,{{{{{{{{{{{{{{{{{{{{{{{{)))))))))))))))){{{{{{{{gggh$..+",
"..+#iiii$$jj$$$$j$$$$$$$jj$$jjj$k---kkkk-k-k---k$$jjjj$$iiii....",
"+++.....+.+.+...+.#+....+..+..+++++.++....+.+.++#....+...++ +++ ",
"+++++..+++.++.....+++...++.++++++++.++++++..+++.+.+++++++ +  +.+",
"+++++....+++++..+..+...+++....++..+.+++++............+...    +++"};
