/* XPM */
static char * player_xpm[] = {
"64 64 55 1",
" 	c #202122",
".	c #1F2022",
"+	c #202022",
"@	c #202021",
"#	c #1F2021",
"$	c #1F2322",
"%	c #202723",
"&	c #202722",
"*	c #202622",
"=	c #1F2622",
"-	c #202522",
";	c #202623",
">	c #212723",
",	c #1A542D",
"'	c #1A532D",
")	c #318933",
"!	c #318833",
"~	c #257C33",
"{	c #257D33",
"]	c #1B542E",
"^	c #1B552E",
"/	c #247C33",
"(	c #308833",
"_	c #1A522D",
":	c #0E0D0E",
"<	c #1A542E",
"[	c #1A532E",
"}	c #1B532E",
"|	c #1C6C31",
"1	c #1C6C32",
"2	c #267D33",
"3	c #1C6D32",
"4	c #D2202C",
"5	c #257C32",
"6	c #EADFD1",
"7	c #7C776F",
"8	c #247C32",
"9	c #B3AAA1",
"0	c #1D6D32",
"a	c #318832",
"b	c #212623",
"c	c #202523",
"d	c #0A7030",
"e	c #EBA724",
"f	c #1F2423",
"g	c #1F2422",
"h	c #247B33",
"i	c #247B32",
"j	c #1C6B32",
"k	c #1B542D",
"l	c #1A552E",
"m	c #1A552D",
"n	c #1F2222",
"o	c #202322",
"p	c #202422",
"   .++. ++++++++.+@+++++++++++++.+++ +++++++++++.+  ...#+++    +",
" + .+....++.+.+++.#+..+.#..+...+++.+++++#+...+.##++..+....    + ",
" . ....++ +.+..+.+....#.++.##.++++.........#..###++ ..##+.   ++ ",
"+++#$$$$%%&&&*%%**=****-**--%&%&%%%%%%%;;*%>;*;**;;;****$$$$ . +",
"+.+$,,,')!!!!!!!~~~~~~~~~~~~!!!!!!!!!!!!!!!!~~{~~{~~~~~{]^]]$ . ",
"+..$,,,')!!!!!!!~~~~~~~~~~~~!!!!!!!!!!!!!!!!~~~~~~~~~~~~]]]]$+++",
"...$,,,'!!!!!!!!/~/~~~~~~~~~!!!!!!!(!!!!!!!!~~~~/~~/~~~~]]]]$..+",
"...$'''_)!!!::::::::::::::::::::::::!!!!!!!)/~~~~~~~~~/~'<[}$...",
"+..*))))~~~~::::::::::::::::::::::::/~~~~~//~~~~|111~/~/{{{2-.++",
"..+&!!!!~~~~::::::::::::::::::::::::~~~~~~~~~~/~1331~///~~~{-..+",
"+..&!!!!~~~~:::444444444444444444::::::~~~~~~~/~1333~//~~~~~-..+",
" .+>!!!!~~~~:::444444444444444444::::::~~~~~~~~~|31|~~/~~~~~-+.+",
"+++>!!!!~~~~:::44444444444444444444::::~~~~~~~~~~~~~~~~~~~~~-..+",
"+++*(!!!~~~/::::::::::::44444444444::::~~~~~~~~~~~~~~~//~~~~-.  ",
"+..*!!!!////::::::::::::44444444444::::~~~~~~~~~/~~~~///~~~5- .+",
"+.+;!!!!/~//::::::::::::::::44444:::::::::::::::~~~~~~/~//~~-..+",
"+++*!!!!~~~~~{~~~~::::::::::44444:::::::::::::::~~~~~~~~)!))* ++",
"+.@*!!!!/~~~~~//~~::::::::::44444:::::::::::::::~~~~~~~~!!!)*..+",
"+#@;!!!!/~~~~~///~:::666666666777777777777777:::~~~~~~~5)!!!*#++",
"++@;!!!!~~~~//~//~:::666666666777777777777777:::~~~~~~~~!!!!*..+",
"+.+*!!!!~~~~~~~~/~:::666666666777777777777777:::~~~~~~~5!!!!*+.+",
"...;!!!!//~~/~////:::666:::::::::::::::::::::::::::/~~~~!!!!;..+",
"+#.;!!!!~~~~~~~/8/:::666:::::::::::::::::::::::::::~~~~~!!!!;..+",
"...*!!!!~/~~~~~/~/:::666:::::::::::::::::::::::::::~~~~~!!!!*..+",
"+++;~~~~~//~~~8/11:::777::::66666669999999999999:::3~~~~!!!!;..+",
"...;~~~~////////33:::777::::66666669999999999999:::3~//8!!!!;.++",
"#..*~~/~~~~/~~/830:::777::::66666669999999999999:::3~8/8!!!!;...",
"...*~~~~~~~/~~/~33:::777::::666:::999:::999:::99:::3~/8/!!!!;..+",
"...*~~~~~~~~~~~~~~:::777::::666:::999:::999:::99:::~~~~8!!!!;+.+",
"+.+-~/~~//~~~~~~/~:::777::::999:::999:::999:::99:::~~~/8!!!!;+.+",
"+.+*~~~~/~~/~~~~~~:::777::::999:::999:::999:::99:::~~~~8!!!!;+++",
"..+*~~/~~~~~~~~~~~:::777::::999:::999:::999:::99:::~~~/8a!!!b+++",
"+.+*~8/~/~~~~~/~/~:::777::::999:::999:::999:::99::://5/555~~;+++",
"..+*~8~////~~~~/8~:::777::::999:::999:::999:::99:::~5//8~~~5*+.+",
"+.+*5~~~//~~~~588~:::777::::999:::999:::999:::99:::~5~85~~~~-+.+",
"+++-~~/~~~~~~~~~~~:::777::::99999999999999999999:::~~~/~~~~~-+++",
"+.+b!!!!/~~~~~~~~~:::777::::99999999999999999999:::~~~~~~~~~-+++",
"+++*!!!!/~~~~~~::::::777::::99999999999999999999:::~~~~/~~~~c+++",
"+++%!!!!/~~~~~8::::::::::::::::::::::::::::::::::::~~~855~~~c+++",
"..+%!!!!~~~~~8/::::::::::::::::::::::::::::::::::::~~/8555~{c...",
"+++;!!!!/~~/333:::dddddddddeeeeeeeeeeeeeeeeee::://~~~~/81111f+++",
"+.+%!!!!////333:::dddddddddeeeeeeeeeeeeeeeeee::://~////8|1|1g..+",
"+.+&!!!!////333:::dddddddddeeeeeeeeeeeeeeeeee:::8~~/5/88||||g.++",
"+.+&!!!!~~//::::::dddddddddeee::::::::::::::::::/~~///88|||1g...",
"+..&!!!!/~~~::::::dddddddddeee::::::::::::::::::/~~~~~/8|||1g+..",
"+.+&!!!!//~/::::::dddddddddeee::::::::::::::::::~~~////81|||g..+",
"+.+%!!!!//88:::ddddddddddddeee:::777777777777:::8~//8888||||g.+.",
"+.+%!!!!///~:::ddddddddddddeee:::777777777777:::///h//88||11g..+",
"+++%!!!!~~~~:::ddddddddddddeee:::777777777777:::!!!!h~/8|||1g+.+",
"+++%!!!!/~//:::dddddddddeeeeee:::777777777777:::!!!!/~88||||g..+",
" ++;!!!!///~:::dddddddddeeeeee:::777777777777:::(((!i588||1|g+.+",
" ++;!!!!/~~~:::eeeeeeeeeeeee::::::::::9999::::::a(!!h~881111g.++",
"+++*~5~~~~//:::eeeeeeeeeeeee::::::::::9999::::::8~~~~//51111f+++",
"+++*~~~~~~//:::eeeeeeeeeeeee::::::::::9999::::::/~~~~//81111g+++",
"+++-~~8~~~8/::::::::::::::::::///~~::::::::::~////~~~~881111g+.+",
"++.*{{{{~~/~::::::::::::::::::/~i~i::::::::::/88/~~/~~/81jj1g..+",
"++.$''''{~~/::::::::::::::::::/~!!!::::::::::!!!/~~~~~/~'}}}$.++",
"+..$,,,'{/~/~~///////~/~~~~~~~~~!!!!!!!!!!!!!!!!/~~~~~~~]]]k$..+",
"+.+$<,,'{////~//~~/~/~~~~~~~~~~~!!!!!!!!!!!!!!!!/~~~~~/~]]]]$..+",
"...$l<m,{{{{{{{{{{{{{{{{{{{{{{{{)))))))))))))))){{{{{{{{lllm$..+",
"..+#nnnn$$oo$$$$o$$$$$$$oo$$ooo$p---pppp-p-p---p$$oooo$$nnnn....",
"+++.....+.+.+...+.#+....+..+..+++++.++....+.+.++#....+...++ +++ ",
"+++++..+++.++.....+++...++.++++++++.++++++..+++.+.+++++++ +  +.+",
"+++++....+++++..+..+...+++....++..+.+++++............+...    +++"};
