/* XPM */
static char * player_exit_xpm[] = {
"64 64 16 1",
" 	c #181425",
".	c #0E0D0E",
"+	c #899BAE",
"@	c #92A1B9",
"#	c #657392",
"$	c #D2202C",
"%	c #424C6E",
"&	c #EADFD1",
"*	c #7C776F",
"=	c #192D27",
"-	c #B3AAA1",
";	c #2A2F4E",
">	c #0A7030",
",	c #EBA724",
"'	c #3E5168",
")	c #3B5662",
"                                                                ",
"                                                                ",
"                                                                ",
"                                                                ",
"                                                                ",
"                                                                ",
"                                                                ",
"            ........................                            ",
"            ........................            ++++@@@@####    ",
"            ........................            +@@+@@@@####    ",
"            ...$$$$$$$$$$$$$$$$$$......         +@@@@@@@####    ",
"            ...$$$$$$$$$$$$$$$$$$......         +@++@@@@####    ",
"            ...$$$$$$$$$$$$$$$$$$$$....         @@@@####%%%%    ",
"            ............$$$$$$$$$$$....         @@@@####%%%%    ",
"            ............$$$$$$$$$$$....         @@@@####%%%%    ",
"            ................$$$$$...............@@@@####%%%%    ",
"                  ..........$$$$$...............########%%%%    ",
"                  ..........$$$$$...............########%%%%    ",
"                  ...&&&&&&&&&***************...########%%%%    ",
"                  ...&&&&&&&&&***************...########%%%%    ",
"                  ...&&&&&&&&&***************...########%%%%    ",
"                  ...&&&...........................#####%%%%    ",
"                  ...&&&...........................#####%%%%    ",
"                  ...&&&...........................#####%%%%    ",
"                ==...***....&&&&&&&-------------...#####%%%%    ",
"                  ...***....&&&&&&&-------------...#####%%%%    ",
"                  ...***....&&&&&&&-------------...#####%%%%    ",
"                  ...***....&&&...---...---...--...#####%%%%    ",
"                ##...***....&&&...---...---...--...#####%%%%    ",
"                ##...***....---...---...---...--...#####%%%%    ",
"                ##...***....---...---...---...--...#####%%%%    ",
"                ##...***....---...---...---...--...#####%%%%    ",
"                ##...***....---...---...---...--...#####%%%%    ",
"                ##...***....---...---...---...--...#####%%%%    ",
"                ##...***....---...---...---...--...#####%%%%    ",
"                ##...***....--------------------...#####%%%%    ",
"    %%%%;;;;    %%...***....--------------------...#####%%%%    ",
"    %%%%;;;;   ......***....--------------------...#####%%%%    ",
"    %%%%;;;;   ....................................#####%%%%    ",
"    %%%%;;;;   ....................................#####%%%%    ",
"    %%%%       ...>>>>>>>>>,,,,,,,,,,,,,,,,,,...########''''    ",
"    %%%%       ...>>>>>>>>>,,,,,,,,,,,,,,,,,,...########''''    ",
"    %%%%       ...>>>>>>>>>,,,,,,,,,,,,,,,,,,...########''''    ",
"    %%%%    ......>>>>>>>>>,,,..................########''''    ",
"    ;;;;    ......>>>>>>>>>,,,..................########''''    ",
"    ;;;;    ......>>>>>>>>>,,,..................########''''    ",
"    ;;;;    ...>>>>>>>>>>>>,,,...************...########''''    ",
"    ;;;;    ...>>>>>>>>>>>>,,,...************...########''''    ",
"    ;;;;    ...>>>>>>>>>>>>,,,...************...########''''    ",
"    ;;;;    ...>>>>>>>>>,,,,,,...************...########''''    ",
"    ;;;;    ...>>>>>>>>>,,,,,,...************...########''''    ",
"    ;;;;    ...,,,,,,,,,,,,,..........----......########''''    ",
"    ;;;;    ...,,,,,,,,,,,,,..........----......@@@@####''''    ",
"    ;;;;    ...,,,,,,,,,,,,,..........----......@@@@####''''    ",
"    ;;;;    ..................;;%%%..........;;;@@@@####''''    ",
"    ;;;;    ..................;;%%%..........;;;@@@@####'))'    ",
"    ;;;;    ..................;;###..........;;;@@@@@@@@####    ",
"    ;;;;        %%%%%%%%;;;;;;;;####%%%%;;;;;;;;@@@@@@@@####    ",
"    ;;;;        %%%%%%%%;;;;;;;;####%%%%;;;;;;;;@@@@@@@@####    ",
"    ;;;;        %%%%%%%%;;;;;;;;####%%%%;;;;;;;;@@@@@@@@####    ",
"                                                                ",
"                                                                ",
"                                                                ",
"                                                                "};
