/* XPM */
static char * wall_xpm[] = {
"64 64 5 1",
" 	c None",
".	c #242B33",
"+	c #AEB4CE",
"@	c #636B85",
"#	c #3D4857",
"        ................................................        ",
"        ................................................        ",
"        ................................................        ",
"        ................................................        ",
"    ....++++++++++++++++++++++++++++++++++++++++++++++++....    ",
"    ....++++++++++++++++++++++++++++++++++++++++++++++++....    ",
"    ....++++++++++++++++++++++++++++++++++++++++++++++++....    ",
"    ....++++++++++++++++++++++++++++++++++++++++++++++++....    ",
"....++++++++++++@@@@++++++++++++@@@@@@@@@@@@@@@@++++++++++++....",
"....++++++++++++@@@@++++++++++++@@@@@@@@@@@@@@@@++++++++++++....",
"....++++++++++++@@@@++++++++++++@@@@@@@@@@@@@@@@++++++++++++....",
"....++++++++++++@@@@++++++++++++@@@@@@@@@@@@@@@@++++++++++++....",
"....++++++++@@@@@@@@++++++++++++@@@@@@@@@@@@@@@@@@@@++++++++....",
"....++++++++@@@@@@@@++++++++++++@@@@@@@@@@@@@@@@@@@@++++++++....",
"....++++++++@@@@@@@@++++++++++++@@@@@@@@@@@@@@@@@@@@++++++++....",
"....++++++++@@@@@@@@++++++++++++@@@@@@@@@@@@@@@@@@@@++++++++....",
"....++++@@@@@@@@@@@@++++++++++++@@@@++++++++@@@@@@@@@@@@++++....",
"....++++@@@@@@@@@@@@++++++++++++@@@@++++++++@@@@@@@@@@@@++++....",
"....++++@@@@@@@@@@@@++++++++++++@@@@++++++++@@@@@@@@@@@@++++....",
"....++++@@@@@@@@@@@@++++++++++++@@@@++++++++@@@@@@@@@@@@++++....",
"....++++@@@@++++@@@@@@@@@@@@@@@@@@@@++++++++@@@@@@@@@@@@++++....",
"....++++@@@@++++@@@@@@@@@@@@@@@@@@@@++++++++@@@@@@@@@@@@++++....",
"....++++@@@@++++@@@@@@@@@@@@@@@@@@@@++++++++@@@@@@@@@@@@++++....",
"....++++@@@@++++@@@@@@@@@@@@@@@@@@@@++++++++@@@@@@@@@@@@++++....",
"....++++@@@@@@@@@@@@@@@@@@@@@@@@@@@@@@@@@@@@@@@@@@@@@@@@++++....",
"....++++@@@@@@@@@@@@@@@@@@@@@@@@@@@@@@@@@@@@@@@@@@@@@@@@++++....",
"....++++@@@@@@@@@@@@@@@@@@@@@@@@@@@@@@@@@@@@@@@@@@@@@@@@++++....",
"....++++@@@@@@@@@@@@@@@@@@@@@@@@@@@@@@@@@@@@@@@@@@@@@@@@++++....",
"....++++@@@@@@@@########@@@@@@@@@@@@@@@@@@@@@@@@++++@@@@++++....",
"....++++@@@@@@@@########@@@@@@@@@@@@@@@@@@@@@@@@++++@@@@++++....",
"....++++@@@@@@@@########@@@@@@@@@@@@@@@@@@@@@@@@++++@@@@++++....",
"....++++@@@@@@@@########@@@@@@@@@@@@@@@@@@@@@@@@++++@@@@++++....",
"....####@@@@@@@@########@@@@++++++++@@@@@@@@@@@@@@@@@@@@####....",
"....####@@@@@@@@########@@@@++++++++@@@@@@@@@@@@@@@@@@@@####....",
"....####@@@@@@@@########@@@@++++++++@@@@@@@@@@@@@@@@@@@@####....",
"....####@@@@@@@@########@@@@++++++++@@@@@@@@@@@@@@@@@@@@####....",
"....####@@@@@@@@@@@@@@@@@@@@++++++++@@@@@@@@@@@@@@@@@@@@####....",
"....####@@@@@@@@@@@@@@@@@@@@++++++++@@@@@@@@@@@@@@@@@@@@####....",
"....####@@@@@@@@@@@@@@@@@@@@++++++++@@@@@@@@@@@@@@@@@@@@####....",
"....####@@@@@@@@@@@@@@@@@@@@++++++++@@@@@@@@@@@@@@@@@@@@####....",
"....####@@@@####@@@@@@@@@@@@@@@@@@@@@@@@@@@@@@@@@@@@########....",
"....####@@@@####@@@@@@@@@@@@@@@@@@@@@@@@@@@@@@@@@@@@########....",
"....####@@@@####@@@@@@@@@@@@@@@@@@@@@@@@@@@@@@@@@@@@########....",
"....####@@@@####@@@@@@@@@@@@@@@@@@@@@@@@@@@@@@@@@@@@########....",
"....####@@@@@@@@@@@@@@@@@@@@@@@@@@@@########@@@@@@@@@@@@####....",
"....####@@@@@@@@@@@@@@@@@@@@@@@@@@@@########@@@@@@@@@@@@####....",
"....####@@@@@@@@@@@@@@@@@@@@@@@@@@@@########@@@@@@@@@@@@####....",
"....####@@@@@@@@@@@@@@@@@@@@@@@@@@@@########@@@@@@@@@@@@####....",
"....####@@@@@@@@########@@@@@@@@@@@@########@@@@####@@@@####....",
"....####@@@@@@@@########@@@@@@@@@@@@########@@@@####@@@@####....",
"....####@@@@@@@@########@@@@@@@@@@@@########@@@@####@@@@####....",
"....####@@@@@@@@########@@@@@@@@@@@@########@@@@####@@@@####....",
"....####@@@@@@@@########@@@@@@@@@@@@@@@@@@@@@@@@@@@@@@@@####....",
"....####@@@@@@@@########@@@@@@@@@@@@@@@@@@@@@@@@@@@@@@@@####....",
"....####@@@@@@@@########@@@@@@@@@@@@@@@@@@@@@@@@@@@@@@@@####....",
"....####@@@@@@@@########@@@@@@@@@@@@@@@@@@@@@@@@@@@@@@@@####....",
"    ....################################################....    ",
"    ....################################################....    ",
"    ....################################################....    ",
"    ....################################################....    ",
"        ................................................        ",
"        ................................................        ",
"        ................................................        ",
"        ................................................        "};
